<svg xmlns="http://www.w3.org/2000/svg" width="200" height="200" fill="none" viewBox="0 0 200 200"><g clip-path="url(#a)"><path fill="url(#b)" fill-rule="evenodd" d="M100 22c0-12.15-9.85-22-22-22H22C9.85 0 0 9.85 0 22v56.72c0 12.15 9.85 21.999 22 21.999h56c12.15 0 22 9.85 22 22V178c0 12.15 9.85 22 22 22h56c12.15 0 22-9.85 22-22v-56.72c0-12.15-9.85-22-22-22h-56c-12.15 0-22-9.85-22-22z" clip-rule="evenodd"/></g><defs><linearGradient id="b" x1="14" x2="179" y1="26" y2="179.5" gradientUnits="userSpaceOnUse"><stop stop-color="#E9B8FF"/><stop offset="1" stop-color="#F9ECFF"/></linearGradient><clipPath id="a"><path fill="#fff" d="M0 0h200v200H0z"/></clipPath></defs></svg>