<svg xmlns="http://www.w3.org/2000/svg" width="933.333" height="933.333" version="1.0" viewBox="0 0 700 700"><path d="M66.9.4c-.2.2-2 .7-3.9 1-10.1 1.6-20.4 6-30.4 13C18.5 24.2 8.3 38.4 2.8 56L.5 63.5v112c0 106.8.1 112.3 1.9 119 7.4 27.3 27.2 47.4 54.6 55.4 7.8 2.2 15.4 2.4 117.5 2.6 58.3.1 108 .5 110.5.9 32.8 5.3 58 30.6 63.9 63.9.7 3.8 1.1 42.6 1.1 108.5 0 56.5.3 104.3.6 106.2 1.5 10.6 5.8 24 8.8 28 .7.8 1.8 2.7 2.5 4.1 2.3 4.6 10.1 13.2 17.6 19.2 8.4 6.9 19.6 12.3 32 15.4 1.7.4 52.1.8 112 1l109 .2 9.3-2.4c8.7-2.2 25.2-9.9 25.2-11.7 0-.4.6-.8 1.3-.8 1.2 0 11-9.3 15.8-15 5-5.9 12.2-21.1 13.4-28.2.3-1.8 1-4.9 1.5-6.8.6-2 1-47.5 1-111 0-116.7.1-113.7-5.6-128-9.6-24.2-30.6-41.6-56.9-47.2-3.3-.7-40.6-1.1-111.5-1.3-115.1-.2-113.8-.1-127.3-5.6-10.3-4.1-17.2-8.7-25.1-16.4-10.7-10.5-16-19.3-20.9-34.5-2-6.3-2.1-8.8-2.4-70-.6-124.8-.9-156.5-1.6-158.9-2.8-10.2-4.2-14.2-6.7-19-10-19.7-25.6-32.9-47.5-40.2l-7-2.3L177.4.3C116.9.1 67.2.2 66.9.4"/></svg>