<?xml version="1.0" standalone="no"?>
<!DOCTYPE svg PUBLIC "-//W3C//DTD SVG 20010904//EN"
 "http://www.w3.org/TR/2001/REC-SVG-20010904/DTD/svg10.dtd">
<svg version="1.0" xmlns="http://www.w3.org/2000/svg"
 width="700.000000pt" height="700.000000pt" viewBox="0 0 700.000000 700.000000"
 preserveAspectRatio="xMidYMid meet">
<metadata>
Created by potrace 1.14, written by Peter Selinger 2001-2017
</metadata>
<g transform="translate(0.000000,700.000000) scale(0.100000,-0.100000)"
fill="#000000" stroke="none">
<path d="M669 6996 c-2 -2 -20 -7 -39 -10 -101 -16 -204 -60 -304 -130 -141
-98 -243 -240 -298 -416 l-23 -75 0 -1120 c0 -1068 1 -1123 19 -1190 74 -273
272 -474 546 -554 78 -22 154 -24 1175 -26 583 -1 1080 -5 1105 -9 328 -53
580 -306 639 -639 7 -38 11 -426 11 -1085 0 -565 3 -1043 6 -1062 15 -106 58
-240 88 -280 7 -8 18 -27 25 -41 23 -46 101 -132 176 -192 84 -69 196 -123
320 -154 17 -4 521 -8 1120 -10 l1090 -2 93 24 c87 22 252 99 252 117 0 4 6 8
13 8 12 0 110 93 158 150 50 59 122 211 134 282 3 18 10 49 15 68 6 20 10 475
10 1110 0 1167 1 1137 -56 1280 -96 242 -306 416 -569 472 -33 7 -406 11
-1115 13 -1151 2 -1138 1 -1273 56 -103 41 -172 87 -251 164 -107 105 -160
193 -209 345 -20 63 -21 88 -24 700 -6 1248 -9 1565 -16 1589 -28 102 -42 142
-67 190 -100 197 -256 329 -475 402 l-70 23 -1101 3 c-605 2 -1102 1 -1105 -1z"/>
</g>
</svg>
